<?xml version="1.0" encoding="utf-8"?>
<!-- Svg Vector Icons : http://www.onlinewebfonts.com/icon -->
<!DOCTYPE svg PUBLIC "-//W3C//DTD SVG 1.1//EN" "http://www.w3.org/Graphics/SVG/1.1/DTD/svg11.dtd">
<svg version="1.1" xmlns="http://www.w3.org/2000/svg" xmlns:xlink="http://www.w3.org/1999/xlink" x="0px" y="0px" viewBox="0 0 256 256" enable-background="new 0 0 256 256" xml:space="preserve">
<metadata> Svg Vector Icons : http://www.onlinewebfonts.com/icon </metadata>
<g><g><path fill="#000000" d="M128,10C62.8,10,10,62.8,10,128c0,65.2,52.8,118,118,118c65.2,0,118-52.8,118-118C246,62.8,193.2,10,128,10z M194.4,95.5l-78.8,78.8c-1.9,1.9-4.3,2.9-7,2.9c-2.6,0-5.1-1-7-2.9l-40.1-40.1c-3.8-3.8-3.8-10.1,0-13.9c3.8-3.8,10.1-3.8,13.9,0l33.1,33.1l71.9-71.9c3.8-3.8,10.1-3.8,13.9,0C198.3,85.5,198.3,91.7,194.4,95.5z"/></g></g>
</svg>