<?xml version="1.0" encoding="utf-8"?>
<!-- Svg Vector Icons : http://www.onlinewebfonts.com/icon -->
<!DOCTYPE svg PUBLIC "-//W3C//DTD SVG 1.1//EN" "http://www.w3.org/Graphics/SVG/1.1/DTD/svg11.dtd">
<svg version="1.1" xmlns="http://www.w3.org/2000/svg" xmlns:xlink="http://www.w3.org/1999/xlink" x="0px" y="0px" viewBox="0 0 256 256" enable-background="new 0 0 256 256" xml:space="preserve">
<metadata> Svg Vector Icons : http://www.onlinewebfonts.com/icon </metadata>
<g><g><path fill="#000000" d="M128,10C62.8,10,10,62.8,10,128c0,65.2,52.8,118,118,118c65.2,0,118-52.8,118-118C246,62.8,193.2,10,128,10z M128,231.5c-56.9,0-103.2-46.5-103.2-103.5C24.8,71.1,71.1,24.7,128,24.7c56.9,0,103.3,46.3,103.3,103.3C231.3,184.9,184.9,231.5,128,231.5z M175.1,84.8l-69.2,69.7l-31.2-31.2c-2.9-2.9-7.6-2.9-10.4,0c-2.9,2.9-2.9,7.5,0,10.4l36.5,36.5c2.9,2.9,7.5,2.9,10.4,0c0.3-0.3,0.7-0.7,0.9-1.1l73.4-73.9c2.9-2.9,2.9-7.5,0-10.4C182.6,81.9,178,81.9,175.1,84.8z"/></g></g>
</svg>